<svg xmlns="http://www.w3.org/2000/svg" width="480" height="320" viewBox="0 0 480 320">
<rect x="0" y="22" width="480" height="298" fill="#ffffff"/>
<line x1="72" y1="42" x2="72" y2="270" stroke="#e1e1e1" stroke-width="1.000" stroke-linecap="round"/>
<line x1="170" y1="42" x2="170" y2="270" stroke="#e1e1e1" stroke-width="1.000" stroke-linecap="round"/>
<line x1="269" y1="42" x2="269" y2="270" stroke="#e1e1e1" stroke-width="1.000" stroke-linecap="round"/>
<line x1="60" y1="260" x2="330" y2="260" stroke="#e1e1e1" stroke-width="1.000" stroke-linecap="round"/>
<line x1="60" y1="210" x2="330" y2="210" stroke="#e1e1e1" stroke-width="1.000" stroke-linecap="round"/>
<line x1="60" y1="161" x2="330" y2="161" stroke="#e1e1e1" stroke-width="1.000" stroke-linecap="round"/>
<line x1="60" y1="112" x2="330" y2="112" stroke="#e1e1e1" stroke-width="1.000" stroke-linecap="round"/>
<line x1="60" y1="62" x2="330" y2="62" stroke="#e1e1e1" stroke-width="1.000" stroke-linecap="round"/>
<line x1="60" y1="270" x2="330" y2="270" stroke="#505050" stroke-width="1.000" stroke-linecap="round"/>
<line x1="60" y1="42" x2="60" y2="270" stroke="#505050" stroke-width="1.000" stroke-linecap="round"/>
<line x1="72" y1="270" x2="72" y2="275" stroke="#505050" stroke-width="1.000" stroke-linecap="round"/>
<line x1="170" y1="270" x2="170" y2="275" stroke="#505050" stroke-width="1.000" stroke-linecap="round"/>
<line x1="269" y1="270" x2="269" y2="275" stroke="#505050" stroke-width="1.000" stroke-linecap="round"/>
<line x1="55" y1="260" x2="60" y2="260" stroke="#505050" stroke-width="1.000" stroke-linecap="round"/>
<line x1="55" y1="210" x2="60" y2="210" stroke="#505050" stroke-width="1.000" stroke-linecap="round"/>
<line x1="55" y1="161" x2="60" y2="161" stroke="#505050" stroke-width="1.000" stroke-linecap="round"/>
<line x1="55" y1="112" x2="60" y2="112" stroke="#505050" stroke-width="1.000" stroke-linecap="round"/>
<line x1="55" y1="62" x2="60" y2="62" stroke="#505050" stroke-width="1.000" stroke-linecap="round"/>
<path d="M72.273,239.896 L121.364,190.545 L170.455,210.286 L219.545,131.325 L268.636,81.974 L317.727,52.364" fill="none" stroke="#1e6ec8" stroke-width="3.000" stroke-linecap="round" stroke-linejoin="round"/>
<circle cx="72" cy="260" r="5" fill="#1f77b4"/>
<circle cx="121" cy="220" r="5" fill="#1f77b4"/>
<circle cx="170" cy="181" r="5" fill="#ff7f0e"/>
<circle cx="220" cy="141" r="5" fill="#1f77b4"/>
<circle cx="269" cy="102" r="5" fill="#1f77b4"/>
<circle cx="318" cy="62" r="5" fill="#1f77b4"/>
<rect x="350" y="42" width="14" height="14" fill="#1f77b4"/>
<rect x="350" y="64" width="14" height="14" fill="#ff7f0e"/>
<text x="195" y="14" font-size="18.000" fill="#282828" text-anchor="middle">Actual vs. Forecast Revenue</text>
<text x="72" y="291" font-size="12.000" fill="#282828" text-anchor="middle">0</text>
<text x="170" y="291" font-size="12.000" fill="#282828" text-anchor="middle">2</text>
<text x="269" y="291" font-size="12.000" fill="#282828" text-anchor="middle">4</text>
<text x="51" y="264" font-size="12.000" fill="#282828" text-anchor="end">40</text>
<text x="51" y="214" font-size="12.000" fill="#282828" text-anchor="end">45</text>
<text x="51" y="165" font-size="12.000" fill="#282828" text-anchor="end">50</text>
<text x="51" y="116" font-size="12.000" fill="#282828" text-anchor="end">55</text>
<text x="51" y="66" font-size="12.000" fill="#282828" text-anchor="end">60</text>
<text x="368" y="53" font-size="12.000" fill="#282828" text-anchor="start">Ahead</text>
<text x="368" y="75" font-size="12.000" fill="#282828" text-anchor="start">Behind</text>
</svg>
